<?xml version="1.0" encoding="iso-8859-1"?>
<svg version="1.1" id="Layer_1" xmlns="http://www.w3.org/2000/svg" xmlns:xlink="http://www.w3.org/1999/xlink" x="0px" y="0px"
	 viewBox="0 0 499.2 499.2" style="enable-background:new 0 0 499.2 499.2;" xml:space="preserve">
<circle style="fill:#F7860B;" cx="249.6" cy="236" r="183.2"/>
<path style="fill:#F7D74F;" d="M209.6,297.6c0,0-49.6-123.2-72-126.4S-12,248,18.4,271.2s52-11.2,52-11.2s-32,36-5.6,48.8
	s34.4-25.6,34.4-25.6s-6.4,31.2,13.6,33.6s18.4-27.2,18.4-27.2s-2.4,12.8,11.2,15.2c14.4,3.2,40,2.4,40,2.4L209.6,297.6z"/>
<g>
	<path style="fill:#FFEB97;" d="M76.8,308.8c-20-9.6-7.2-31.2,0.8-42.4c-4,4.8-11.2,10.4-20,12.8c-4.8,10.4-5.6,22.4,7.2,28.8
		c5.6,2.4,10.4,3.2,14.4,1.6C78.4,309.6,77.6,309.6,76.8,308.8z"/>
	<path style="fill:#FFEB97;" d="M30.4,272c-28-21.6,76.8-90.4,111.2-99.2c-1.6-0.8-3.2-1.6-4.8-1.6C114.4,168-12.8,248,17.6,271.2
		c9.6,7.2,17.6,8.8,24.8,8C39.2,277.6,34.4,275.2,30.4,272z"/>
	<path style="fill:#FFEB97;" d="M154.4,305.6c-8.8-1.6-11.2-7.2-11.2-11.2c0,2.4-0.8,6.4-1.6,9.6c0.8,0,0.8,0,0.8,0
		c4.8,0.8,11.2,1.6,17.6,1.6C158.4,306.4,156,305.6,154.4,305.6z"/>
	<path style="fill:#FFEB97;" d="M111.2,284c0,0-2.4,13.6-11.2,21.6c1.6,5.6,5.6,9.6,12.8,10.4c2.4,0,4.8,0,7.2-0.8
		C105.6,308.8,111.2,284,111.2,284z"/>
</g>
<path style="fill:#F7D74F;" d="M289.6,297.6c0,0,49.6-123.2,72-126.4s149.6,76.8,119.2,100c-30.4,23.2-52-11.2-52-11.2
	s32,36,5.6,48.8S400,283.2,400,283.2s6.4,31.2-13.6,33.6S368,289.6,368,289.6s2.4,12.8-11.2,15.2c-14.4,3.2-40,2.4-40,2.4
	L289.6,297.6z"/>
<g>
	<path style="fill:#FFEB97;" d="M422.4,308.8c20-9.6,7.2-31.2-0.8-42.4c4,4.8,11.2,10.4,20,12.8c4.8,10.4,5.6,22.4-7.2,28.8
		c-5.6,2.4-10.4,3.2-14.4,1.6C420.8,309.6,421.6,309.6,422.4,308.8z"/>
	<path style="fill:#FFEB97;" d="M468.8,272c28-21.6-76.8-90.4-111.2-99.2c1.6-0.8,3.2-1.6,4.8-1.6c22.4-3.2,149.6,76.8,119.2,100
		c-9.6,7.2-17.6,8.8-24.8,8C460,277.6,464.8,275.2,468.8,272z"/>
	<path style="fill:#FFEB97;" d="M344.8,305.6c8.8-1.6,11.2-7.2,11.2-11.2c0,2.4,0.8,6.4,1.6,9.6c-0.8,0-0.8,0-0.8,0
		c-4.8,0.8-11.2,1.6-17.6,1.6C340.8,306.4,343.2,305.6,344.8,305.6z"/>
	<path style="fill:#FFEB97;" d="M388,284c0,0,3.2,13.6,11.2,21.6c-1.6,5.6-5.6,9.6-12.8,10.4c-2.4,0-4.8,0-7.2-0.8
		C393.6,308.8,388,284,388,284z"/>
</g>
<path style="fill:#1AB0D3;" d="M379.2,497.6c-8-232-62.4-344-129.6-344c-66.4,0-121.6,112-129.6,344H379.2z"/>
<path style="fill:#69CFE0;" d="M249.6,155.2c-66.4,0-121.6,109.6-129.6,344"/>
<path style="fill:#0F8BBC;" d="M379.2,497.6c-8-234.4-62.4-342.4-129.6-342.4"/>
<g>
	
		<rect x="238.198" y="295.326" transform="matrix(-0.7068 0.7075 -0.7075 -0.7068 642.5177 346.7282)" style="fill:#FFEB97;" width="22.401" height="22.401"/>
	
		<rect x="238.425" y="338.398" transform="matrix(-0.7071 0.7071 -0.7071 -0.7071 673.3399 420.2894)" style="fill:#FFEB97;" width="22.4" height="22.4"/>
	
		<rect x="238.636" y="381.497" transform="matrix(-0.7071 0.7071 -0.7071 -0.7071 704.175 493.7145)" style="fill:#FFEB97;" width="22.4" height="22.4"/>
	<path style="fill:#FFEB97;" d="M323.2,121.6c0,55.2-32.8,89.6-73.6,89.6s-74.4-33.6-74.4-89.6c0-55.2,32.8-78.4,74.4-78.4
		C290.4,43.2,323.2,66.4,323.2,121.6z"/>
</g>
<path style="fill:#F7D74F;" d="M249.6,43.2c40.8,0,73.6,22.4,73.6,78.4c0,55.2-32.8,89.6-73.6,89.6"/>
<ellipse style="fill:#F9A908;" cx="249.6" cy="12.8" rx="72" ry="12.8"/>
<path style="fill:#F7860B;" d="M249.6,0c40,0,72,5.6,72,12.8s-32,12.8-72,12.8"/>
</svg>
