<?xml version="1.0" standalone="no"?>
<!DOCTYPE svg PUBLIC "-//W3C//DTD SVG 20010904//EN"
 "http://www.w3.org/TR/2001/REC-SVG-20010904/DTD/svg10.dtd">
<svg version="1.0" xmlns="http://www.w3.org/2000/svg"
 width="512.000000pt" height="512.000000pt" viewBox="0 0 512.000000 512.000000"
 preserveAspectRatio="xMidYMid meet">
<metadata>
Created by potrace 1.11, written by Peter Selinger 2001-2013
</metadata>
<g transform="translate(0.000000,512.000000) scale(0.100000,-0.100000)"
fill="#000000" stroke="none">
<path d="M867 4978 c-14 -57 -34 -134 -45 -173 -20 -69 -57 -232 -66 -289 -3
-16 -8 -50 -12 -75 -4 -25 -8 -54 -10 -64 -2 -10 -6 -46 -9 -80 -4 -34 -8 -64
-10 -67 -2 -4 -7 -40 -10 -81 -3 -41 -8 -87 -10 -104 -2 -16 -6 -68 -10 -115
-9 -118 -8 -111 -60 -261 -26 -74 -58 -168 -72 -209 -14 -41 -29 -79 -34 -84
-5 -5 -34 -1 -71 9 -35 10 -92 26 -128 36 -36 9 -74 21 -84 25 -27 10 -21 -2
75 -163 44 -75 79 -136 77 -138 -2 -1 -79 -23 -173 -49 -94 -26 -178 -50 -187
-52 -32 -9 -42 5 161 -214 58 -63 135 -146 171 -185 35 -38 67 -72 70 -75 3
-3 30 -32 60 -64 l55 -58 -140 7 -140 7 56 -59 c31 -32 86 -89 122 -128 37
-38 64 -72 59 -76 -4 -3 -41 -24 -82 -45 -41 -21 -77 -41 -80 -44 -3 -3 -27
-17 -55 -31 -27 -14 -69 -36 -93 -49 l-42 -22 22 -17 c13 -10 174 -123 358
-251 184 -128 379 -264 432 -302 l97 -68 -111 -158 c-61 -86 -119 -168 -130
-181 -10 -13 -17 -26 -15 -28 2 -1 78 35 169 82 92 47 168 85 171 85 3 0 4
-45 4 -101 -1 -55 0 -105 3 -109 3 -4 41 18 85 51 l80 58 3 -54 c2 -30 5 -55
8 -55 2 0 27 11 54 25 l49 25 19 -28 c10 -15 38 -63 62 -107 81 -150 174 -290
260 -392 19 -23 80 -132 135 -242 55 -110 102 -200 105 -201 3 0 23 34 43 76
28 56 41 73 50 66 61 -50 228 -116 347 -137 40 -7 185 -8 215 -1 11 2 43 9 70
16 88 19 229 81 281 122 12 9 31 -18 69 -99 11 -24 23 -43 26 -43 3 0 19 28
35 63 96 199 180 351 224 406 64 80 166 235 220 336 24 44 56 99 72 122 l29
43 49 -25 c27 -14 52 -25 55 -25 3 0 5 25 5 55 l0 55 58 -40 c31 -22 69 -49
85 -61 l27 -21 1 24 c1 12 1 62 1 111 0 48 2 87 5 87 2 0 77 -37 166 -82 89
-46 166 -85 171 -87 8 -3 -44 73 -181 266 l-73 102 98 69 c78 56 440 309 502
352 8 5 73 50 143 100 70 49 137 95 148 101 20 10 20 11 2 23 -16 12 -241 135
-316 174 l-29 14 44 46 c23 26 52 56 63 68 11 11 47 49 80 83 l60 62 -140 -6
-140 -6 55 57 c30 32 62 65 70 74 8 8 62 67 120 130 97 107 177 193 258 277
37 39 39 50 15 57 -10 3 -94 26 -188 51 -93 26 -172 49 -173 50 -2 2 16 36 40
77 84 138 130 220 126 223 -2 2 -64 -14 -138 -35 -155 -45 -159 -46 -166 -22
-3 9 -10 26 -14 37 -12 30 -117 334 -129 375 -5 19 -13 75 -16 124 -4 49 -8
102 -10 118 -2 16 -7 63 -10 106 -4 42 -9 79 -10 82 -2 3 -6 34 -10 70 -12
115 -53 342 -81 445 -14 55 -33 127 -41 160 -9 33 -23 87 -33 119 l-17 60 -74
-108 c-174 -252 -322 -515 -350 -625 -7 -28 -16 -50 -20 -49 -4 2 -49 42 -101
89 -51 47 -97 86 -103 85 -11 -1 -11 4 -19 -116 -4 -52 -8 -96 -10 -98 -4 -3
-70 79 -111 138 -11 16 -24 28 -29 27 -9 -3 -10 -8 -17 -74 -2 -17 -6 -31 -9
-29 -3 1 -16 7 -30 13 -41 18 -110 43 -119 43 -5 0 -15 -16 -21 -36 -12 -35
-14 -36 -54 -31 -22 2 -86 14 -141 26 -132 30 -121 28 -195 36 -36 4 -68 9
-72 11 -19 12 -355 4 -448 -10 -19 -3 -55 -8 -79 -11 -23 -4 -54 -10 -67 -15
-13 -5 -24 -8 -24 -6 0 2 -33 -4 -72 -15 -40 -10 -87 -19 -104 -19 -28 0 -34
5 -48 39 l-15 40 -38 -18 c-53 -26 -112 -46 -117 -40 -2 2 -6 23 -9 47 -2 23
-6 45 -9 48 -3 3 -36 -33 -73 -81 -38 -47 -70 -84 -71 -82 -3 3 -15 163 -17
215 0 17 -10 15 -28 -5 -23 -26 -180 -167 -190 -171 -5 -2 -9 4 -9 12 0 33
-65 183 -127 295 -65 116 -284 455 -302 465 -5 3 -21 -40 -34 -96z"/>
</g>
</svg>
